<svg version="1" xmlns="http://www.w3.org/2000/svg" width="400" height="400" viewBox="0 0 300.000000 300.000000"><path d="M131.5.6C96.7 5.7 68 19.9 44 44 22.6 65.3 9.5 89.3 2.8 119.1c-2 9-2.3 13.1-2.3 30.9 0 17.8.3 21.9 2.3 30.9C9.5 210.7 22.6 234.7 44 256c21.3 21.4 45.3 34.5 75.1 41.2 9 2 13.1 2.3 30.9 2.3 17.8 0 21.9-.3 30.9-2.3 29.8-6.7 53.8-19.8 75.1-41.2 21.4-21.3 34.5-45.3 41.2-75.1 2-9 2.3-13.1 2.3-30.9 0-17.8-.3-21.9-2.3-30.9-6.7-29.8-19.8-53.8-41.2-75.1-20.9-21-43.9-33.7-73-40.7-8.9-2.1-13.5-2.5-29.5-2.8-10.4-.2-20.3-.1-22 .1zM171 6.1c46.3 6.3 88 36.6 109.5 79.6 19.8 39.8 19.8 88.8-.1 128.6-7.7 15.4-14.9 25.3-27.8 38.3-25.8 25.8-55.3 39.4-91.6 42.3-32.6 2.6-64.6-5.8-93-24.7-10.5-6.9-30.6-26.8-37.7-37.2C.2 188.7-3.7 131.8 20.2 84.5c7.5-15 14-23.8 27.3-37 13.2-13.3 22-19.8 37-27.3C111.4 6.6 139.9 2 171 6.1z"/><path d="M52.3 72.7c.4 13.7.7 58.6.7 99.8v75.1l35.3.4c19.3.3 57.7.5 85.2.5 52.7-.1 56.7-.3 71.8-5.2 9.9-3.1 22.8-16.7 24.6-25.9 1.8-8.9 3.1-39.3 2-47.8-1.1-8.8-2.5-12-7.9-18.6-7-8.5-7-8.7-1.7-19.9 2.8-5.9 3-7.2 3.5-21.1.4-13.2.2-15.5-1.8-22.1-3.3-11.1-7.2-17.8-13.6-23.9-8.4-7.9-11-9.5-19.5-11.9-11.6-3.2-33.7-4.1-110.3-4.1H51.7l.6 24.7zm144.2 1.2c23.1.8 26 1.6 37 9.1 7.2 5 8.9 9.2 9.3 24.1.4 11.9.3 12.9-2.2 17.7-1.4 2.8-4.4 6.5-6.7 8.4-8 6.3-10.9 9.5-10.9 12.1 0 3.5 3.3 7.2 8.1 9.1 7.8 3.2 15.6 9.2 17 13.3 1.4 4.4.6 35.7-1.1 41.5-2.3 7.8-8 12.2-19 14.6-9.1 1.9-51.6 2.6-106.3 1.7l-45.2-.7-.1-76.2-.1-76.1 49.6.3c27.3.1 59.1.6 70.6 1.1z"/></svg>